<svg xmlns="http://www.w3.org/2000/svg" width="560" height="330" viewBox="0 0 560 330"><rect width="560" height="330" fill="#fcfcfb"/><text x="24.0" y="32.0" font-family="system-ui, -apple-system, &quot;Segoe UI&quot;, sans-serif" font-size="15" fill="#0b0b0b" text-anchor="start" font-weight="600">Throughput: synchronous NORMAL vs FULL</text><text x="24.0" y="52.0" font-family="system-ui, -apple-system, &quot;Segoe UI&quot;, sans-serif" font-size="11.5" fill="#52514e" text-anchor="start" font-weight="normal">Committed writes per second, same load as above · immediate transactions, no added pauses</text><rect x="24" y="69" width="12" height="12" rx="3" fill="#2a78d6"/><text x="41.0" y="79.0" font-family="system-ui, -apple-system, &quot;Segoe UI&quot;, sans-serif" font-size="12" fill="#52514e" text-anchor="start" font-weight="normal">pooled</text><rect x="117" y="69" width="12" height="12" rx="3" fill="#eb6834"/><text x="134.0" y="79.0" font-family="system-ui, -apple-system, &quot;Segoe UI&quot;, sans-serif" font-size="12" fill="#52514e" text-anchor="start" font-weight="normal">single</text><rect x="210" y="69" width="12" height="12" rx="3" fill="#1baf7a"/><text x="227.0" y="79.0" font-family="system-ui, -apple-system, &quot;Segoe UI&quot;, sans-serif" font-size="12" fill="#52514e" text-anchor="start" font-weight="normal">writer</text><line x1="64.0" y1="286.0" x2="532.0" y2="286.0" stroke="#e1e0d9" stroke-width="1"/><text x="56.0" y="289.5" font-family="system-ui, -apple-system, &quot;Segoe UI&quot;, sans-serif" font-size="10.5" fill="#898781" text-anchor="end" font-weight="normal" style="font-variant-numeric: tabular-nums">0</text><line x1="64.0" y1="238.5" x2="532.0" y2="238.5" stroke="#e1e0d9" stroke-width="1"/><text x="56.0" y="242.0" font-family="system-ui, -apple-system, &quot;Segoe UI&quot;, sans-serif" font-size="10.5" fill="#898781" text-anchor="end" font-weight="normal" style="font-variant-numeric: tabular-nums">1,500</text><line x1="64.0" y1="191.0" x2="532.0" y2="191.0" stroke="#e1e0d9" stroke-width="1"/><text x="56.0" y="194.5" font-family="system-ui, -apple-system, &quot;Segoe UI&quot;, sans-serif" font-size="10.5" fill="#898781" text-anchor="end" font-weight="normal" style="font-variant-numeric: tabular-nums">3,000</text><line x1="64.0" y1="143.5" x2="532.0" y2="143.5" stroke="#e1e0d9" stroke-width="1"/><text x="56.0" y="147.0" font-family="system-ui, -apple-system, &quot;Segoe UI&quot;, sans-serif" font-size="10.5" fill="#898781" text-anchor="end" font-weight="normal" style="font-variant-numeric: tabular-nums">4,500</text><line x1="64.0" y1="96.0" x2="532.0" y2="96.0" stroke="#e1e0d9" stroke-width="1"/><text x="56.0" y="99.5" font-family="system-ui, -apple-system, &quot;Segoe UI&quot;, sans-serif" font-size="10.5" fill="#898781" text-anchor="end" font-weight="normal" style="font-variant-numeric: tabular-nums">6,000</text><path d="M116.0,286.0 L116.0,151.1 Q116.0,147.1 120.0,147.1 L154.0,147.1 Q158.0,147.1 158.0,151.1 L158.0,286.0 Z" fill="#2a78d6"/><text x="137.0" y="141.1" font-family="system-ui, -apple-system, &quot;Segoe UI&quot;, sans-serif" font-size="10.5" fill="#898781" text-anchor="middle" font-weight="normal" style="font-variant-numeric: tabular-nums">4,387</text><path d="M160.0,286.0 L160.0,129.2 Q160.0,125.2 164.0,125.2 L198.0,125.2 Q202.0,125.2 202.0,129.2 L202.0,286.0 Z" fill="#eb6834"/><text x="181.0" y="119.2" font-family="system-ui, -apple-system, &quot;Segoe UI&quot;, sans-serif" font-size="10.5" fill="#898781" text-anchor="middle" font-weight="normal" style="font-variant-numeric: tabular-nums">5,077</text><path d="M204.0,286.0 L204.0,213.8 Q204.0,209.8 208.0,209.8 L242.0,209.8 Q246.0,209.8 246.0,213.8 L246.0,286.0 Z" fill="#1baf7a"/><text x="225.0" y="203.8" font-family="system-ui, -apple-system, &quot;Segoe UI&quot;, sans-serif" font-size="10.5" fill="#898781" text-anchor="middle" font-weight="normal" style="font-variant-numeric: tabular-nums">2,405</text><text x="181.0" y="304.0" font-family="system-ui, -apple-system, &quot;Segoe UI&quot;, sans-serif" font-size="11.5" fill="#52514e" text-anchor="middle" font-weight="normal">NORMAL (immediate)</text><path d="M350.0,286.0 L350.0,179.8 Q350.0,175.8 354.0,175.8 L388.0,175.8 Q392.0,175.8 392.0,179.8 L392.0,286.0 Z" fill="#2a78d6"/><text x="371.0" y="169.8" font-family="system-ui, -apple-system, &quot;Segoe UI&quot;, sans-serif" font-size="10.5" fill="#898781" text-anchor="middle" font-weight="normal" style="font-variant-numeric: tabular-nums">3,481</text><path d="M394.0,286.0 L394.0,147.0 Q394.0,143.0 398.0,143.0 L432.0,143.0 Q436.0,143.0 436.0,147.0 L436.0,286.0 Z" fill="#eb6834"/><text x="415.0" y="137.0" font-family="system-ui, -apple-system, &quot;Segoe UI&quot;, sans-serif" font-size="10.5" fill="#898781" text-anchor="middle" font-weight="normal" style="font-variant-numeric: tabular-nums">4,515</text><path d="M438.0,286.0 L438.0,208.7 Q438.0,204.7 442.0,204.7 L476.0,204.7 Q480.0,204.7 480.0,208.7 L480.0,286.0 Z" fill="#1baf7a"/><text x="459.0" y="198.7" font-family="system-ui, -apple-system, &quot;Segoe UI&quot;, sans-serif" font-size="10.5" fill="#898781" text-anchor="middle" font-weight="normal" style="font-variant-numeric: tabular-nums">2,568</text><text x="415.0" y="304.0" font-family="system-ui, -apple-system, &quot;Segoe UI&quot;, sans-serif" font-size="11.5" fill="#52514e" text-anchor="middle" font-weight="normal">FULL (full_sync)</text><line x1="64.0" y1="286.0" x2="532.0" y2="286.0" stroke="#c3c2b7" stroke-width="1"/></svg>